<?xml version="1.0" standalone="no"?>
<!DOCTYPE svg PUBLIC "-//W3C//DTD SVG 20010904//EN"
 "http://www.w3.org/TR/2001/REC-SVG-20010904/DTD/svg10.dtd">
<svg version="1.0" xmlns="http://www.w3.org/2000/svg"
 width="1024.000000pt" height="682.000000pt" viewBox="0 0 1024.000000 682.000000"
 preserveAspectRatio="xMidYMid meet">

<g transform="translate(0.000000,682.000000) scale(0.100000,-0.100000)"
fill="#000000" stroke="none">
<path d="M7580 5405 c0 -8 18 -26 40 -40 61 -38 75 -67 74 -150 -2 -71 -22
-140 -92 -316 -51 -126 -59 -220 -19 -227 9 -2 17 0 17 5 4 81 15 128 55 233
72 192 85 239 85 313 0 84 -24 137 -80 172 -44 28 -80 33 -80 10z"/>
<path d="M8667 5396 c-4 -9 11 -28 37 -50 24 -19 58 -58 76 -86 70 -109 31
-240 -130 -430 -120 -143 -170 -223 -170 -275 0 -26 22 -39 39 -22 6 6 11 19
11 29 0 33 36 91 128 205 119 147 149 192 178 264 50 122 24 230 -79 327 -57
53 -81 63 -90 38z"/>
<path d="M2595 5355 c-44 -43 -25 -125 28 -125 29 0 21 -90 -17 -214 -19 -61
-55 -183 -81 -271 -25 -88 -52 -182 -60 -210 -8 -27 -39 -139 -70 -247 -108
-388 -178 -594 -195 -583 -5 3 -11 20 -15 38 -4 17 -20 82 -36 142 -90 339
-136 513 -188 710 -33 121 -89 335 -126 475 -37 140 -72 260 -78 266 -8 7 -83
14 -204 17 -182 6 -193 5 -203 -13 -14 -25 -12 -71 3 -91 7 -9 30 -20 51 -25
34 -8 41 -15 49 -44 11 -42 2 -979 -13 -1225 -5 -93 -14 -258 -20 -365 -26
-514 -56 -916 -91 -1230 -13 -123 -67 -257 -122 -309 -33 -30 -54 -22 -63 24
-5 29 -10 36 -28 33 -16 -2 -24 -14 -32 -49 -17 -69 -4 -127 37 -161 67 -57
166 -23 274 94 51 55 79 99 130 202 119 241 169 490 196 971 20 359 28 401 24
120 -8 -498 -58 -858 -148 -1068 -17 -41 -18 -50 -6 -57 19 -12 33 3 58 60 44
103 85 304 120 590 16 129 34 623 27 723 -6 86 5 113 19 44 3 -17 33 -141 66
-274 32 -134 59 -249 59 -257 0 -8 -18 -29 -40 -46 -45 -36 -83 -100 -78 -133
3 -22 3 -22 317 -25 223 -2 318 1 327 9 23 19 16 62 -19 120 -64 106 -64 105
-22 226 94 273 237 682 253 723 l17 45 3 -49 c2 -32 -2 -54 -12 -65 -8 -9 -29
-59 -46 -111 -18 -52 -59 -167 -92 -255 -88 -234 -130 -375 -124 -408 7 -34
105 -177 122 -177 20 0 23 26 6 52 -70 103 -82 124 -82 143 0 43 40 161 213
625 3 8 6 -126 6 -298 1 -219 -2 -320 -11 -335 -6 -12 -31 -44 -55 -71 -40
-45 -44 -53 -38 -85 4 -20 13 -46 21 -58 14 -23 17 -23 249 -23 l235 0 16 25
c23 35 11 71 -39 123 l-42 43 -5 1042 c-3 573 -3 1059 -1 1080 3 32 9 41 40
57 52 26 101 74 101 99 0 12 -9 30 -20 41 -19 19 -33 20 -270 20 l-251 0 -24
-25z m271 -401 c2 -71 9 -417 14 -769 6 -352 13 -754 17 -892 6 -233 5 -253
-11 -253 -9 0 -18 6 -20 13 -3 6 -9 352 -15 767 -12 840 -20 1120 -30 1120 -4
0 -17 -28 -28 -62 -12 -35 -48 -139 -81 -233 -33 -93 -92 -262 -132 -375 -39
-113 -82 -235 -96 -271 -13 -36 -28 -79 -33 -95 -5 -16 -36 -105 -69 -199 -33
-93 -89 -251 -124 -350 -42 -120 -68 -181 -79 -183 -16 -3 -12 -15 -261 828
-38 129 -80 271 -93 315 -77 261 -146 495 -171 583 -2 6 -7 12 -12 12 -5 0
-12 -145 -16 -322 -4 -178 -11 -492 -16 -698 -30 -1151 -123 -1726 -307 -1902
-36 -34 -117 -58 -135 -40 -15 15 4 32 37 32 90 1 181 161 239 420 83 377 118
845 141 1940 9 422 20 739 26 744 6 6 12 6 18 0 8 -7 47 -130 93 -294 5 -19
47 -161 93 -315 45 -154 129 -435 185 -625 55 -190 110 -372 120 -405 10 -33
26 -88 36 -122 9 -35 20 -63 25 -63 4 0 15 24 25 53 9 28 37 108 61 177 65
183 162 459 236 670 219 627 322 917 330 928 20 26 28 -8 33 -134z m-1091
-1215 c9 -44 15 -82 13 -83 -1 -2 -13 -7 -25 -10 -23 -7 -23 -6 -23 83 0 50 4
91 9 91 4 0 16 -36 26 -81z"/>
<path d="M4501 5362 c-17 -33 -13 -87 10 -116 12 -16 41 -32 74 -41 29 -9 56
-23 59 -31 3 -9 6 -480 6 -1046 0 -1025 0 -1030 -21 -1079 -12 -27 -25 -49
-29 -49 -9 0 -55 86 -69 131 -6 19 -18 71 -26 115 -60 334 -78 429 -90 497
-17 85 -29 154 -74 392 -16 88 -32 174 -36 190 -3 17 -16 92 -30 168 -45 249
-75 411 -90 484 -20 97 -20 216 0 233 8 7 15 21 15 32 0 33 -42 18 -62 -22
-20 -39 -24 -136 -8 -203 5 -23 18 -91 29 -152 11 -60 37 -195 56 -300 20
-104 42 -226 50 -270 8 -44 21 -116 29 -160 42 -227 110 -589 122 -655 7 -41
25 -138 39 -215 20 -110 33 -156 63 -215 23 -44 43 -74 51 -72 14 3 13 -9 -4
-79 -12 -52 -3 -54 229 -57 213 -3 215 -3 227 19 19 37 5 119 -32 178 l-32 53
2 437 c1 240 6 439 10 444 11 11 98 -69 126 -116 69 -120 105 -334 105 -635
l0 -183 -29 -27 c-40 -37 -51 -63 -51 -116 l0 -46 241 0 241 0 -4 60 c-3 47
-10 66 -30 88 -25 27 -26 30 -31 217 -11 375 -81 642 -215 816 l-51 67 39 31
c85 68 166 198 203 326 27 92 28 280 3 375 -61 233 -196 430 -339 495 -61 28
-197 43 -488 52 -171 5 -177 5 -188 -15z m598 -171 c145 -45 240 -145 285
-301 55 -190 33 -387 -58 -511 -61 -83 -212 -161 -358 -184 -21 -3 -38 -9 -38
-13 0 -4 21 -18 46 -32 121 -64 247 -185 311 -299 75 -132 105 -274 123 -572
6 -90 13 -181 16 -201 5 -30 3 -38 -10 -38 -8 0 -18 5 -21 10 -4 6 -11 86 -16
178 -24 416 -72 576 -221 737 -81 88 -263 205 -318 205 -20 0 -20 -4 -20 -574
0 -569 -2 -608 -32 -578 -10 10 7 2150 17 2180 7 21 220 16 294 -7z"/>
<path d="M4842 5167 c-8 -9 -12 -160 -12 -481 -1 -257 0 -470 2 -472 8 -7 183
25 251 46 86 27 182 92 224 153 66 98 88 248 58 397 -50 251 -194 370 -445
370 -44 0 -71 -5 -78 -13z m233 -117 c23 -11 54 -34 68 -50 66 -73 117 -207
117 -305 0 -103 -56 -220 -131 -274 -37 -27 -135 -71 -158 -71 -13 0 -19 703
-6 712 18 14 68 8 110 -12z"/>
<path d="M5627 5362 c-9 -10 -17 -27 -17 -38 0 -33 38 -83 67 -89 15 -3 39
-11 53 -18 l25 -13 3 -1047 c2 -1154 7 -1065 -62 -1142 -40 -45 -47 -86 -21
-135 l16 -30 209 0 209 0 16 30 c21 40 13 62 -40 119 l-43 46 -3 1074 c-3
1056 -3 1074 16 1088 11 8 35 24 54 36 19 12 43 34 55 50 l20 27 -21 28 -20
27 -250 3 c-232 2 -251 1 -266 -16z m301 -1253 c-2 -734 -6 -1114 -13 -1114
-13 0 -24 2215 -11 2233 5 7 13 9 18 4 4 -4 7 -510 6 -1123z"/>
<path d="M8189 5364 c-141 -28 -254 -89 -346 -188 -233 -249 -244 -715 -23
-994 57 -72 119 -115 229 -159 147 -57 219 -101 301 -183 322 -321 158 -826
-370 -1142 -275 -164 -623 -268 -1058 -314 -109 -12 -95 -42 54 -114 174 -84
339 -118 533 -107 536 29 1086 418 1300 919 106 249 108 505 6 715 -108 221
-317 390 -636 516 -114 45 -161 81 -195 150 -24 46 -26 59 -22 142 3 82 8 100
44 176 46 94 118 180 192 228 81 52 150 67 106 24 -41 -42 -116 -171 -136
-236 -27 -91 -16 -151 47 -236 79 -107 160 -147 204 -100 18 20 21 35 21 107
0 99 2 102 136 242 121 127 194 255 194 340 0 137 -170 231 -410 229 -58 -1
-135 -7 -171 -15z m331 -101 c32 -19 50 -51 50 -92 0 -50 -56 -143 -124 -208
-94 -88 -101 -106 -100 -235 1 -80 -2 -108 -11 -108 -18 0 -25 34 -25 130 0
110 17 146 107 236 107 106 141 195 92 240 -47 42 -235 10 -396 -67 -148 -71
-245 -184 -274 -321 -18 -84 -5 -227 31 -338 65 -198 119 -254 325 -341 11 -4
49 -20 85 -34 156 -63 255 -140 326 -250 120 -188 137 -429 48 -692 -131 -387
-455 -692 -884 -831 -178 -57 -338 -86 -485 -86 -156 -1 -150 16 10 30 392 35
668 134 920 332 304 238 499 648 456 958 -21 148 -79 270 -173 363 -64 64
-133 103 -298 171 -143 58 -204 95 -256 152 -68 76 -134 259 -149 418 -22 230
102 420 340 519 159 67 325 90 385 54z"/>
<path d="M3233 5363 c-7 -3 -13 -17 -13 -32 0 -38 -17 -58 -80 -89 -31 -15
-60 -38 -67 -52 -17 -34 -19 -2002 -2 -2082 13 -59 40 -118 63 -137 9 -8 16
-26 16 -40 0 -36 32 -69 72 -75 62 -10 505 -14 520 -5 22 12 31 55 17 82 -7
12 -29 38 -50 57 -20 20 -41 48 -44 63 -4 16 6 129 23 258 23 177 33 234 47
249 22 24 218 125 260 134 17 3 35 3 41 -2 7 -4 17 -45 22 -92 28 -221 63
-469 72 -507 14 -59 14 -59 -24 -81 -47 -28 -67 -89 -42 -127 l17 -25 197 6
c211 7 242 14 242 57 0 12 -16 46 -35 75 -40 59 -55 112 -90 322 -13 80 -38
217 -55 305 -168 870 -250 1369 -250 1523 0 57 3 68 30 99 32 36 40 82 18 101
-8 6 -110 13 -243 17 -261 9 -263 8 -244 -58 8 -28 19 -42 49 -57 21 -11 41
-23 44 -28 3 -5 -6 -58 -19 -118 -13 -60 -34 -154 -45 -209 -44 -207 -49 -232
-64 -300 -17 -78 -72 -338 -116 -545 -149 -702 -202 -936 -217 -963 -25 -42
-108 -100 -121 -84 -15 19 -38 78 -45 117 -8 49 -12 2032 -3 2050 3 8 33 27
65 42 59 28 91 68 91 116 0 23 -20 41 -37 35z m670 -385 c5 -30 86 -402 123
-568 8 -36 21 -94 28 -130 12 -58 85 -393 121 -555 7 -33 29 -136 49 -230 20
-93 50 -230 66 -303 34 -151 36 -172 16 -172 -9 0 -18 19 -25 48 -14 60 -81
370 -166 762 -36 168 -72 334 -80 370 -8 36 -31 139 -50 230 -20 91 -47 215
-60 275 -13 61 -27 125 -30 143 -4 17 -11 32 -16 32 -5 0 -9 -3 -9 -8 0 -4
-18 -91 -40 -192 -22 -102 -49 -225 -60 -275 -10 -49 -29 -135 -40 -190 -12
-55 -30 -138 -40 -185 -48 -224 -191 -890 -201 -932 -11 -48 -39 -68 -39 -29
0 11 57 282 126 603 69 320 139 644 155 718 15 74 37 173 47 220 10 47 34 156
52 243 28 125 38 157 51 157 11 0 18 -11 22 -32z m41 -828 c13 -58 22 -107 20
-109 -7 -7 -133 -39 -137 -35 -3 3 -1 22 4 42 4 20 18 93 29 162 32 187 26
192 84 -60z"/>
<path d="M6697 5363 c-13 -12 -7 -58 9 -82 9 -13 32 -29 50 -37 39 -16 39 -22
20 -114 -8 -36 -37 -173 -65 -305 -29 -132 -58 -269 -66 -305 -35 -157 -68
-313 -110 -512 -102 -493 -185 -869 -198 -900 -8 -18 -39 -54 -69 -80 l-54
-46 -41 55 -40 55 -8 1002 c-4 552 -4 1022 0 1045 6 39 11 44 58 65 60 27 84
50 97 95 11 39 4 61 -20 61 -13 0 -19 -11 -24 -40 -6 -37 -11 -42 -66 -70
-103 -52 -94 62 -91 -1113 3 -1125 0 -1064 61 -1133 16 -19 32 -46 35 -59 3
-14 7 -36 10 -48 7 -36 76 -46 347 -50 265 -5 278 -2 278 55 0 25 -10 41 -47
76 l-48 44 1 92 c0 50 8 143 17 206 9 63 19 139 23 169 8 69 29 88 160 151
114 55 143 64 163 51 13 -9 31 -117 62 -376 5 -49 17 -125 25 -169 18 -99 18
-126 0 -126 -25 0 -66 -59 -66 -95 0 -63 10 -66 213 -60 216 7 222 8 243 40
15 23 15 27 -5 57 -57 91 -69 127 -95 273 -14 83 -40 222 -56 310 -193 1020
-247 1340 -265 1566 -7 81 -6 87 17 115 47 56 52 73 30 103 -18 24 -25 26
-128 32 -154 9 -349 10 -357 2z m248 -375 c6 -26 149 -681 169 -778 8 -36 39
-180 70 -320 173 -798 185 -855 176 -864 -18 -18 -27 7 -64 179 -35 161 -77
353 -131 600 -13 61 -49 227 -80 370 -115 533 -145 671 -152 694 -8 30 -21 -8
-51 -154 -18 -82 -48 -224 -67 -315 -20 -91 -49 -228 -66 -305 -17 -77 -43
-201 -60 -275 -25 -116 -73 -340 -135 -630 -28 -130 -30 -135 -45 -135 -17 0
-15 38 10 150 19 83 22 98 96 440 25 116 58 271 75 345 16 74 52 243 80 375
28 132 62 290 75 350 13 61 31 146 40 190 10 44 19 86 21 93 6 20 33 13 39
-10z m34 -792 c17 -82 28 -152 24 -156 -11 -11 -124 -42 -130 -36 -3 2 2 40
10 83 9 43 24 122 33 176 10 53 21 94 24 90 4 -5 21 -75 39 -157z"/>
<path d="M7487 5356 c-45 -17 -74 -41 -93 -78 -21 -40 -17 -70 12 -114 l27
-39 -36 -105 c-46 -133 -61 -218 -53 -299 8 -72 56 -199 87 -227 18 -17 21
-17 37 -1 13 14 17 37 18 110 2 106 4 113 77 267 88 186 118 304 97 390 -21
86 -92 125 -173 96z m60 -146 l22 -51 -65 -201 c-53 -162 -65 -210 -62 -252 2
-40 0 -51 -12 -51 -10 0 -17 16 -23 54 -7 50 -3 68 58 250 65 194 66 197 50
233 -18 46 -19 68 -2 68 7 0 23 -23 34 -50z"/>
<path d="M5240 5336 c0 -8 25 -31 55 -51 118 -79 220 -226 261 -380 29 -108
27 -352 -4 -459 -32 -110 -95 -226 -158 -294 -30 -31 -54 -61 -54 -66 0 -5 15
-32 34 -60 129 -195 191 -435 205 -796 8 -194 18 -250 45 -250 18 0 28 27 17
48 -4 9 -11 96 -14 192 -9 250 -41 445 -101 604 -26 68 -84 185 -115 231 l-21
30 39 40 c135 141 210 373 198 609 -9 160 -47 281 -130 413 -72 114 -257 250
-257 189z"/>
<path d="M1824 5296 c-3 -9 -3 -24 1 -33 4 -10 76 -295 161 -633 208 -825 193
-770 215 -770 26 0 25 11 -21 195 -23 88 -103 405 -178 705 -111 441 -141 545
-155 548 -9 2 -20 -4 -23 -12z"/>
<path d="M7197 5243 c-24 -27 -39 -99 -32 -151 4 -26 27 -157 51 -292 43 -235
58 -315 125 -675 17 -88 37 -196 45 -240 8 -44 21 -116 29 -160 8 -44 23 -129
35 -190 11 -60 30 -159 41 -220 31 -174 40 -206 70 -266 33 -66 54 -88 72 -70
9 9 4 25 -21 71 -34 61 -44 102 -87 337 -14 76 -34 185 -45 243 -11 58 -31
168 -45 245 -32 171 -77 412 -105 560 -12 61 -27 146 -35 190 -7 44 -30 166
-49 272 -42 221 -44 265 -16 311 29 48 3 75 -33 35z"/>
<path d="M8012 4678 c-21 -21 -14 -100 14 -156 43 -86 159 -163 386 -259 133
-55 239 -124 304 -196 92 -102 163 -233 200 -372 21 -78 30 -309 15 -401 -27
-173 -97 -349 -203 -509 -70 -105 -230 -265 -346 -343 -107 -73 -279 -158
-402 -198 -100 -32 -110 -39 -89 -59 14 -14 26 -12 120 21 392 136 688 386
853 721 142 289 165 625 60 891 -48 121 -102 202 -198 298 -82 81 -104 97
-201 144 -61 29 -164 78 -230 110 -122 59 -204 120 -230 171 -8 15 -15 55 -15
89 0 61 -11 75 -38 48z"/>
<path d="M6960 3628 c-41 -23 -92 -49 -112 -59 -20 -10 -39 -27 -42 -36 -9
-31 -56 -331 -62 -401 -6 -67 -5 -67 35 -121 23 -29 42 -63 42 -75 1 -11 2
-34 3 -51 1 -23 6 -30 21 -30 18 0 20 7 20 61 0 56 -3 65 -43 117 l-44 56 11
53 c5 29 19 116 31 193 11 77 23 149 25 160 3 13 39 39 104 75 103 56 119 71
98 89 -9 7 -35 -2 -87 -31z"/>
<path d="M3871 3605 c-52 -30 -98 -58 -103 -63 -8 -8 -38 -179 -69 -390 -10
-73 -10 -75 18 -114 59 -86 63 -93 63 -140 0 -40 3 -48 19 -48 13 0 20 9 24
35 8 47 -6 90 -49 153 l-37 52 23 153 c13 83 28 179 34 212 l11 59 100 56 c58
32 101 62 103 73 6 31 -38 18 -137 -38z"/>
<path d="M1807 2637 c-3 -7 -3 -25 0 -40 5 -23 10 -27 39 -27 l34 0 -2 -222
-3 -223 -32 -3 c-35 -4 -43 -16 -36 -55 l5 -28 107 3 106 3 0 35 c0 32 -3 35
-32 38 l-33 3 0 90 0 89 58 0 c32 0 66 -6 75 -12 10 -7 34 -65 55 -128 l37
-115 46 -3 c32 -2 50 2 58 12 19 22 6 64 -21 68 -18 2 -27 19 -49 88 -15 47
-33 93 -39 104 -9 15 -8 21 9 33 35 24 51 68 51 135 0 79 -24 122 -83 148 -35
17 -66 20 -193 20 -116 0 -153 -3 -157 -13z m327 -86 c23 -25 31 -84 17 -120
-16 -38 -49 -51 -126 -51 l-65 0 0 95 0 95 78 0 c64 0 82 -3 96 -19z"/>
<path d="M3491 2582 c-22 -38 -41 -74 -41 -80 0 -7 14 -12 34 -12 30 0 40 8
90 69 31 39 56 75 56 80 0 6 -21 11 -49 11 l-49 0 -41 -68z"/>
<path d="M3962 2613 c3 -35 6 -38 36 -41 l32 -3 0 -225 0 -224 -36 0 c-35 0
-35 -1 -32 -37 l3 -38 95 -3 c258 -8 350 39 350 179 0 55 -19 100 -51 123
l-22 15 26 30 c45 54 47 143 4 197 -41 52 -86 64 -255 64 l-153 0 3 -37z m328
-63 c20 -20 26 -63 14 -108 -10 -34 -54 -52 -129 -52 l-65 0 0 90 0 90 80 0
c67 0 83 -3 100 -20z m7 -255 c28 -20 37 -75 19 -119 -18 -42 -63 -59 -146
-54 l-55 3 -3 93 -3 92 83 0 c58 0 90 -5 105 -15z"/>
<path d="M5362 2613 c3 -35 6 -38 36 -41 l32 -3 0 -224 0 -224 -32 -3 c-30 -3
-33 -6 -33 -38 l0 -35 120 0 120 0 0 35 c0 34 -1 35 -45 40 l-45 5 0 75 0 75
84 8 c100 9 149 33 181 89 15 26 27 37 37 34 8 -3 21 -6 28 -6 11 0 14 -32 17
-144 4 -170 13 -191 92 -215 43 -14 53 -13 94 2 30 10 50 13 56 7 6 -6 67 -10
137 -10 102 0 128 3 132 14 5 13 11 13 39 -2 44 -22 116 -21 159 4 74 43 110
149 91 263 -17 102 -65 151 -156 159 -38 3 -64 -1 -87 -12 -17 -9 -33 -16 -35
-16 -2 0 -5 44 -6 98 l-3 97 -67 3 -68 3 0 -35 c0 -30 3 -35 28 -38 l27 -3 0
-230 0 -230 -60 0 -60 0 -3 178 -2 177 -71 0 c-55 0 -71 -3 -76 -16 -9 -24 10
-48 43 -54 16 -3 28 -9 27 -13 -2 -4 -3 -57 -3 -117 0 -104 -1 -112 -25 -135
-31 -32 -84 -34 -111 -4 -17 19 -19 35 -16 133 2 61 0 132 -3 158 l-7 47 -60
3 -61 3 -12 48 c-26 104 -76 126 -283 127 l-153 0 3 -37z m320 -63 c30 -23 41
-74 27 -125 -13 -47 -58 -67 -137 -63 l-57 3 -3 89 c-2 48 -1 94 2 102 9 23
137 19 168 -6z m849 -150 c43 -23 65 -110 48 -188 -15 -73 -41 -102 -90 -102
-79 0 -109 40 -109 145 0 69 8 94 43 133 22 24 74 30 108 12z"/>
<path d="M3118 2574 c-23 -12 -28 -21 -28 -54 0 -21 -4 -41 -9 -45 -12 -7
-152 -7 -213 1 -98 12 -168 -40 -168 -124 1 -76 29 -100 149 -127 74 -17 97
-37 84 -72 -11 -29 -35 -42 -79 -43 -46 0 -80 27 -93 76 -6 24 -13 29 -37 29
l-29 0 0 -85 c0 -81 1 -85 23 -88 13 -2 29 1 35 7 9 7 28 5 60 -6 40 -13 55
-14 89 -3 58 17 84 36 102 75 28 59 15 120 -32 151 -14 9 -62 26 -106 38 -70
18 -81 24 -84 44 -9 62 96 88 137 36 12 -15 21 -37 21 -50 0 -21 5 -24 35 -24
l35 0 0 51 c0 48 1 51 23 45 12 -3 30 -6 40 -6 15 0 17 -13 17 -140 0 -157 9
-189 60 -215 37 -19 53 -19 91 1 32 16 59 66 59 109 0 35 16 31 24 -6 14 -73
128 -134 206 -110 91 27 141 105 141 221 1 126 -60 208 -160 218 -124 12 -209
-78 -210 -220 l-1 -57 -37 -3 c-36 -3 -38 -5 -43 -43 -4 -32 -9 -40 -25 -40
-19 0 -20 8 -23 142 l-3 142 53 3 c52 3 53 4 56 36 l3 32 -55 0 -55 0 -3 57
c-2 31 -7 58 -13 59 -5 2 -22 -4 -37 -12z m434 -193 c30 -26 33 -35 36 -100 5
-88 -1 -114 -36 -146 -56 -52 -141 -22 -163 58 -14 51 -6 139 15 169 38 54
100 62 148 19z"/>
<path d="M2420 2473 c-40 -15 -75 -51 -98 -101 -21 -46 -24 -65 -20 -127 8
-117 54 -182 148 -206 85 -22 188 31 209 108 13 45 8 53 -29 53 -24 0 -32 -6
-44 -34 -17 -42 -42 -56 -95 -56 -27 0 -48 7 -66 23 -25 22 -49 80 -37 91 3 3
68 6 144 6 l138 0 0 43 c0 88 -38 160 -101 192 -27 15 -119 19 -149 8z m129
-84 c25 -24 44 -66 35 -80 -3 -5 -48 -9 -100 -9 -93 0 -94 0 -94 24 0 13 13
38 29 55 36 39 94 43 130 10z"/>
<path d="M4550 2473 c-41 -15 -90 -82 -90 -123 0 -17 6 -20 40 -20 27 0 40 4
40 14 0 7 9 25 21 40 16 21 29 26 63 26 48 0 74 -20 78 -60 3 -24 0 -25 -74
-32 -127 -12 -178 -52 -178 -140 0 -81 40 -128 121 -143 27 -5 49 -1 82 13 39
17 48 18 58 6 17 -21 311 -20 329 1 22 27 8 50 -33 53 l-39 3 4 124 c3 114 5
126 26 147 14 14 35 23 55 23 30 0 32 3 35 38 l3 37 -45 0 c-25 0 -47 -4 -50
-8 -3 -5 -42 -7 -86 -4 l-81 5 3 -34 c2 -29 7 -34 31 -37 l28 -3 -3 -142 -3
-142 -50 0 -50 0 -5 146 c-6 162 -11 177 -77 205 -32 14 -124 18 -153 7z m147
-275 c-8 -57 -40 -88 -93 -88 -46 0 -74 24 -74 65 0 42 24 60 92 65 34 3 67 4
72 2 4 -3 6 -22 3 -44z"/>
</g>
</svg>
